<svg id="send" enable-background="new 0 0 300 300" height="512" viewBox="0 0 300 300" width="512" xmlns="http://www.w3.org/2000/svg"><path d="m277.51 29.62c-1.626-3.39-2.548-5.145-7.437-4.12-1.6-.101-3.183.325-4.566 1.134.152-.104.298-.229.452-.312-.461.234-1 .539-1.624.924-6.521 2.406-16.859 7.043-33.788 14.633-21.824 9.791-50.895 22.896-79.965 36.017-58.125 26.249-116.211 52.567-116.211 52.567-3.045 1.379-4.909 4.498-4.686 7.826.23 3.328 2.5 6.168 5.696 7.125l75.53 22.562 15.061 67.401c.025.114.096.205.126.317.079.297.226.562.34.852.254.638.56 1.228.958 1.77.104.143.129.313.243.45.101.12.252.16.358.273.646.69 1.381 1.274 2.232 1.702.104.051.186.139.291.186.788.353 1.634.593 2.528.676.25.023.5.031.742.031.001 0 .003-.001.004-.001s.002.001.003.001c.016 0 .032-.009.048-.009.844-.007 1.66-.164 2.439-.423.252-.083.478-.229.723-.339.549-.245 1.069-.523 1.549-.885.112-.084.247-.112.355-.202l47.953-40.057c.031-.026.042-.064.072-.091l55.52 25.157c1.055.482 2.188.717 3.313.715 1.344-.002 2.679-.34 3.882-1.012 2.217-1.238 3.714-3.45 4.04-5.967l23.443-181.404c2.158-3.573.399-7.447.376-7.497zm-126.112 143.078c-.43.555-.595 1.228-.862 1.859-.17.291-.429.503-.564.822l-13.797 32.281-9.636-43.144c28.313-25.007 65.478-57.399 95.525-82.897zm64.139-106.529c-37.923 32.029-85.069 73.531-99.812 86.549l-55.262-16.514c50.997-23.092 111.636-50.499 155.074-70.035zm-61.305 139.953 7.628-17.857 8.913 4.039zm84.986-.371-68.967-31.246 87.593-112.901z"/><g fill="#18c2c6"><path d="m118.022 270.949c-2.586.003-5.119-1.244-6.66-3.547-2.465-3.669-1.479-8.639 2.19-11.096 3.934-2.637 4.235-6.411 4.25-6.833.221-4.336 4.1-7.919 8.186-7.721 4.344.104 7.809 3.545 7.814 7.881.001 1.266-.305 12.571-11.344 19.959-1.367.916-2.913 1.355-4.436 1.357z"/><path d="m92.62 274.791c-.328 0-.664-.023-1-.061-2.305-.286-4.759-.674-7.369-1.194-6.759-1.344-13.332-3.015-19.529-4.953-4.22-1.323-6.569-5.813-5.246-10.025 1.331-4.213 5.82-6.554 10.025-5.246 5.658 1.775 11.676 3.299 17.88 4.534 2.211.443 4.274.768 6.204 1.008 4.391.542 7.498 4.538 6.956 8.921-.503 4.046-3.945 7.011-7.921 7.016z"/><path d="m42.929 258.811c-1.312.002-2.641-.317-3.868-.995-9.795-5.41-14.426-9.905-14.919-10.396-3.129-3.121-3.135-8.184-.013-11.312s8.184-3.135 11.312-.013 3.582 3.425 11.353 7.713c3.87 2.136 5.274 7.002 3.138 10.871-1.458 2.641-4.19 4.129-7.003 4.132z"/></g></svg>